<svg id="Layer_1" data-name="Layer 1" xmlns="http://www.w3.org/2000/svg" viewBox="0 0 367.05 367.57"><defs><style>.cls-1{fill:#2b3075;}.cls-2{fill:#fff;}</style></defs><path class="cls-1" d="M278.48,155.29a85.06,85.06,0,0,1-7.31,6.24l0,0c-.7.54-1.41,1.07-2.13,1.58l0,0c-40.47,27.62-75.72,9.06-110.09-10.54h0c-13.72-7.31-36.19-12.35-58.37-7.74a102,102,0,0,1-4.3-12.14C80.45,77.53,113.55,19.7,170.12,3.58A109,109,0,0,1,188.73,0c-30.4,21.72-53.18,68.2-42.58,105.4,13.57,47.61,68.57,70.13,117.35,56.22A79.37,79.37,0,0,0,278.48,155.29Z"/><path class="cls-2" d="M113.94,151.15q-1.89.14-3.78.36Q112.05,151.27,113.94,151.15Z"/><path class="cls-2" d="M117.83,151c-1.29,0-2.59.09-3.89.18C115.24,151.05,116.54,151,117.83,151Z"/><path class="cls-1" d="M307.84,131.68c-4.13,33.72-23.21,71.7-81.17,83.64a110.92,110.92,0,0,1-27.06,1.11c-8.52-.83-14.39-2.88-22.92-5.92-16.54-5.9-27.69-12.6-42.92-18.49-3.56-1.37-7.14-2.59-10.75-3.61A88.51,88.51,0,0,0,112.1,186a74.38,74.38,0,0,0-11-.9c-.92,0-1.84,0-2.77,0s-1.84.12-2.76.16l-2.76.26c-.92.11-1.84.26-2.75.38a83.93,83.93,0,0,0-21.48,6.64c-3.48,1.57-6.87,3.38-10.24,5.28l-2.52,1.47c-.83.49-1.65,1-2.48,1.53-1.68,1-3.28,2.12-4.95,3.15a104.63,104.63,0,0,1,7.88-16.51c12.58-21.18,30.16-31.43,47.88-35,1.31-.27,2.63-.49,3.94-.69l2-.26.15,0q1.89-.22,3.78-.36c1.3-.09,2.6-.15,3.89-.18a86.93,86.93,0,0,1,17.42,1.38c1.08.2,2.15.41,3.2.65.53.11,1.06.23,1.58.36,1.57.37,3.11.78,4.61,1.23.84.25,1.66.51,2.47.78s1.61.55,2.39.84,1.56.58,2.31.89a66.08,66.08,0,0,1,8.3,4h0c33.64,20.62,68.14,40.16,107.44,11.64l0,0c.7-.53,1.39-1.08,2.08-1.63l0,0c.94-.76,1.86-1.54,2.77-2.35.46-.4.91-.8,1.35-1.22s.65-.59,1-.9l1.17-1.12a89.64,89.64,0,0,0,6.29-6.91c.37-.46.75-.92,1.11-1.39.88-1.11,1.73-2.24,2.54-3.4l.68-1,.71-1c.58-.85,1.14-1.72,1.68-2.6q1.57-2.52,3-5.16c0-.08.09-.16.13-.25l.56-1s0,0,0,0c.2-.39.4-.78.59-1.18l0-.06c.6-1.23,1.19-2.48,1.74-3.75v0a88.67,88.67,0,0,0,4.2-11.89l0-.08c.22-.8.43-1.6.62-2.41.13-.52.25-1,.37-1.56a1.42,1.42,0,0,0,0-.2A85.84,85.84,0,0,0,302,111a2,2,0,0,0,0-.34,84.55,84.55,0,0,0,.41-9.55c0-1.32-.06-2.65-.13-4,0-.11,0-.22,0-.34-.08-1.33-.18-2.67-.32-4a90.59,90.59,0,0,0-20.88-50.86,71.41,71.41,0,0,0-3.88-6.11l.6.6a121.78,121.78,0,0,1,26.67,47.51,104.86,104.86,0,0,1,3.65,18.83A133.27,133.27,0,0,1,307.84,131.68Z"/><path class="cls-1" d="M113.94,151.15q-1.89.14-3.78.36Q112.05,151.27,113.94,151.15Z"/><path class="cls-1" d="M117.83,151c-1.29,0-2.59.09-3.89.18C115.24,151.05,116.54,151,117.83,151Z"/><path class="cls-1" d="M6.25,331.38H1V221.54H6.25Z"/><path class="cls-1" d="M7.25,332.38H0V220.54H7.25Zm-5.25-2H5.25V222.54H2Z"/><path class="cls-1" d="M58.47,333.29a29.05,29.05,0,0,1-25.31-14c-4-6.53-5.1-11.94-5.1-25.16V258.47h5.26v36.14c0,11.14.79,15.28,3.82,20.85a24.24,24.24,0,0,0,42.5.64C83,310.53,84.1,305,84.1,294.61V258.47h5.25v37.1c0,10.82-1.43,17.67-4.61,23.24C79.48,327.72,69.3,333.29,58.47,333.29Z"/><path class="cls-1" d="M58.47,334.29A30.12,30.12,0,0,1,32.3,319.8c-4.11-6.74-5.24-12.26-5.24-25.67V257.47h7.26v37.14c0,10.9.72,14.9,3.7,20.38a23.25,23.25,0,0,0,40.76.61c3.23-5.39,4.32-10.68,4.32-21V257.47h7.25v38.1c0,10.81-1.42,17.91-4.74,23.73C80.15,328.56,69.76,334.29,58.47,334.29ZM29.06,259.47v34.66c0,13,1.07,18.26,4.95,24.64a28.15,28.15,0,0,0,24.46,13.52c10.58,0,20.32-5.36,25.41-14,3.13-5.49,4.47-12.29,4.47-22.73v-36.1H85.1v35.14c0,10.59-1.2,16.35-4.6,22a25.25,25.25,0,0,1-44.25-.69c-3.12-5.76-3.93-10.14-3.93-21.32V259.47Z"/><path class="cls-1" d="M165.29,295.57c0-10.67-1.11-15.92-4.3-21.65a24.53,24.53,0,0,0-21.17-12.26,23.88,23.88,0,0,0-21.65,12.89c-2.55,4.94-3.82,8.76-3.82,17.2v39.48h-5.26v-72.6h5.26v12.42c5.57-9.71,15.28-14.33,25.31-14.33,10.82,0,21,5.57,26.27,14.49,3.34,5.57,4.61,12.58,4.61,23.4v36.62h-5.25Z"/><path class="cls-1" d="M171.54,332.23h-7.25V295.57c0-10.34-1-15.48-4.17-21.17a23.56,23.56,0,0,0-20.3-11.74A22.78,22.78,0,0,0,119.05,275c-2.51,4.86-3.7,8.61-3.7,16.73v40.48h-7.26v-74.6h7.26v10.05c5.59-7.64,14.28-12,24.31-12,11.29,0,21.68,5.74,27.13,15,3.37,5.63,4.75,12.56,4.75,23.91Zm-5.25-2h3.25V294.61c0-11-1.29-17.59-4.47-22.89-5.09-8.64-14.83-14-25.41-14s-19.4,5-24.45,13.83l-1.86,3.25V259.63h-3.26v70.6h3.26V291.75c0-8.54,1.27-12.5,3.93-17.66a24.74,24.74,0,0,1,22.54-13.43,25.54,25.54,0,0,1,22,12.74c3.32,6,4.44,11.57,4.44,22.17Z"/><path class="cls-1" d="M255.71,314c-7.48,12.26-18.78,18.79-32.79,18.79-21,0-37.57-16.88-37.57-38.05A37.81,37.81,0,0,1,255.55,275c4.3,7.16,5.42,13.05,5.42,26.11v30.24h-5.26ZM190.6,294.77c0,18.15,14.65,33,32.48,33a32.57,32.57,0,0,0,32.47-32.31c0-18.79-14.16-33.75-32.15-33.75A32.92,32.92,0,0,0,190.6,294.77Z"/><path class="cls-1" d="M222.92,333.82c-21.63,0-38.57-17.15-38.57-39.05s17-39,38.73-39a38.4,38.4,0,0,1,33.34,18.81c4.3,7.17,5.55,13.14,5.55,26.61v31.24h-7.26v-15C247.06,328.15,236.13,333.82,222.92,333.82Zm.16-76.1c-20.6,0-36.73,16.28-36.73,37s16.06,37.05,36.57,37.05c13.59,0,24.63-6.33,31.94-18.31l1.85-3v19.91H260V301.14c0-13.2-1.14-18.7-5.27-25.6A36.42,36.42,0,0,0,223.08,257.72Zm0,71c-18.46,0-33.48-15.23-33.48-34a34,34,0,0,1,33.8-34.11c18.59,0,33.15,15.26,33.15,34.75A33.42,33.42,0,0,1,223.08,328.72Zm.32-66.06a32,32,0,0,0-31.8,32.11c0,17.62,14.12,32,31.48,32a31.43,31.43,0,0,0,31.47-31.31C254.55,277,240.87,262.66,223.4,262.66Z"/><path class="cls-1" d="M287.87,331.38h-5.25V221.54h5.25Z"/><path class="cls-1" d="M288.87,332.38h-7.25V220.54h7.25Zm-5.25-2h3.25V222.54h-3.25Z"/><path class="cls-1" d="M329.74,330.27l-30.25-71.8h5.42l27.7,65.91L360,258.47h5.57L321,366.57h-5.89Z"/><path class="cls-1" d="M321.65,367.57h-8l15.05-37.29L298,257.47h7.58l27,64.32,26.72-64.32h7.73Zm-5.07-2h3.74l43.74-106.1h-3.41l-28,67.5-28.37-67.5H301l29.82,70.79Z"/></svg>